<svg width="413" height="145" viewBox="0 0 413 145" fill="none" xmlns="http://www.w3.org/2000/svg">
<ellipse cx="76" cy="72.5" rx="76" ry="72.5" fill="#DB2828"/>
<path d="M78.5156 38.75H87.5625V87.0781C87.5625 93.6094 85.5938 98.7188 81.6562 102.406C77.75 106.094 72.5312 107.938 66 107.938C59.2188 107.938 53.9375 106.203 50.1562 102.734C46.375 99.2656 44.4844 94.4062 44.4844 88.1562H53.4844C53.4844 92.0625 54.5469 95.1094 56.6719 97.2969C58.8281 99.4844 61.9375 100.578 66 100.578C69.7188 100.578 72.7188 99.4062 75 97.0625C77.3125 94.7188 78.4844 91.4375 78.5156 87.2188V38.75Z" fill="white"/>
<path d="M155.184 103V54.544C155.184 53.776 155.304 53.272 155.544 53.032C155.832 52.744 156.36 52.6 157.128 52.6H160.944V98.824H176.136V101.056C176.136 101.824 175.992 102.352 175.704 102.64C175.464 102.88 174.96 103 174.192 103H155.184ZM200.522 103V68.368C200.522 67.6 200.642 67.096 200.882 66.856C201.17 66.568 201.698 66.424 202.466 66.424H206.282V101.056C206.282 101.824 206.138 102.352 205.85 102.64C205.61 102.88 205.106 103 204.338 103H200.522ZM182.522 68.368C182.522 67.6 182.642 67.096 182.882 66.856C183.17 66.568 183.698 66.424 184.466 66.424H188.282V94.72C188.282 96.208 188.474 97.264 188.858 97.888C189.242 98.512 190.178 98.824 191.666 98.824H197.642V101.056C197.642 101.824 197.522 102.352 197.282 102.64C197.09 102.88 196.61 103 195.842 103H189.362C186.866 103 185.09 102.496 184.034 101.488C183.026 100.432 182.522 98.656 182.522 96.16V68.368ZM228.529 66.424C229.297 66.424 229.777 66.568 229.969 66.856C230.209 67.096 230.329 67.6 230.329 68.368V70.6H221.473V94.72C221.473 96.208 221.665 97.264 222.049 97.888C222.433 98.512 223.369 98.824 224.857 98.824H231.121C231.025 100.216 230.737 101.272 230.257 101.992C229.825 102.664 228.913 103 227.521 103H222.553C220.057 103 218.281 102.496 217.225 101.488C216.217 100.432 215.713 98.656 215.713 96.16V60.016C215.713 59.248 215.833 58.744 216.073 58.504C216.361 58.216 216.889 58.072 217.657 58.072H221.473V66.424H228.529ZM255.436 103V68.368C255.436 67.6 255.556 67.096 255.796 66.856C256.084 66.568 256.612 66.424 257.38 66.424H261.196V101.056C261.196 101.824 261.052 102.352 260.764 102.64C260.524 102.88 260.02 103 259.252 103H255.436ZM237.436 68.368C237.436 67.6 237.556 67.096 237.796 66.856C238.084 66.568 238.612 66.424 239.38 66.424H243.196V94.72C243.196 96.208 243.388 97.264 243.772 97.888C244.156 98.512 245.092 98.824 246.58 98.824H252.556V101.056C252.556 101.824 252.436 102.352 252.196 102.64C252.004 102.88 251.524 103 250.756 103H244.276C241.78 103 240.004 102.496 238.948 101.488C237.94 100.432 237.436 98.656 237.436 96.16V68.368ZM287.475 66.424C289.971 66.424 291.723 66.952 292.731 68.008C293.787 69.016 294.315 70.768 294.315 73.264V101.056C294.315 101.824 294.171 102.352 293.883 102.64C293.643 102.88 293.139 103 292.371 103H288.555V74.704C288.555 73.216 288.363 72.16 287.979 71.536C287.595 70.912 286.659 70.6 285.171 70.6H276.315V101.056C276.315 101.824 276.171 102.352 275.883 102.64C275.643 102.88 275.139 103 274.371 103H270.555V68.368C270.555 67.6 270.675 67.096 270.915 66.856C271.203 66.568 271.731 66.424 272.499 66.424H276.315V70.6C276.603 69.208 277.035 68.176 277.611 67.504C278.235 66.784 279.243 66.424 280.635 66.424H287.475ZM327.218 52.6V101.056C327.218 101.824 327.074 102.352 326.786 102.64C326.546 102.88 326.042 103 325.274 103H321.458V54.544C321.458 53.776 321.578 53.272 321.818 53.032C322.106 52.744 322.634 52.6 323.402 52.6H327.218ZM310.298 103C307.802 103 306.026 102.496 304.97 101.488C303.962 100.432 303.458 98.656 303.458 96.16V73.264C303.458 70.768 303.962 69.016 304.97 68.008C306.026 66.952 307.802 66.424 310.298 66.424H317.138C318.53 66.424 319.514 66.784 320.09 67.504C320.714 68.176 321.17 69.208 321.458 70.6H312.602C311.114 70.6 310.178 70.912 309.794 71.536C309.41 72.16 309.218 73.216 309.218 74.704V94.72C309.218 96.208 309.41 97.264 309.794 97.888C310.178 98.512 311.114 98.824 312.602 98.824H318.578V101.056C318.578 101.824 318.458 102.352 318.218 102.64C318.026 102.88 317.546 103 316.778 103H310.298ZM354.506 103V68.368C354.506 67.6 354.626 67.096 354.866 66.856C355.154 66.568 355.682 66.424 356.45 66.424H360.266V101.056C360.266 101.824 360.122 102.352 359.834 102.64C359.594 102.88 359.09 103 358.322 103H354.506ZM336.506 68.368C336.506 67.6 336.626 67.096 336.866 66.856C337.154 66.568 337.682 66.424 338.45 66.424H342.266V94.72C342.266 96.208 342.458 97.264 342.842 97.888C343.226 98.512 344.162 98.824 345.65 98.824H351.626V101.056C351.626 101.824 351.506 102.352 351.266 102.64C351.074 102.88 350.594 103 349.826 103H343.346C340.85 103 339.074 102.496 338.018 101.488C337.01 100.432 336.506 98.656 336.506 96.16V68.368ZM375.817 52.6V101.056C375.817 101.824 375.673 102.352 375.385 102.64C375.145 102.88 374.641 103 373.873 103H370.057V54.544C370.057 53.776 370.177 53.272 370.417 53.032C370.705 52.744 371.233 52.6 372.001 52.6H375.817ZM401.788 74.704C401.788 73.216 401.596 72.16 401.212 71.536C400.828 70.912 399.892 70.6 398.404 70.6H385.948C386.236 69.208 386.668 68.176 387.244 67.504C387.868 66.784 388.876 66.424 390.268 66.424H400.708C403.204 66.424 404.956 66.952 405.964 68.008C407.02 69.016 407.548 70.768 407.548 73.264V103H403.732C402.964 103 402.436 102.88 402.148 102.64C401.908 102.352 401.788 101.824 401.788 101.056V74.704ZM391.348 103C388.852 103 387.076 102.496 386.02 101.488C385.012 100.432 384.508 98.656 384.508 96.16V88.24C384.508 85.744 385.012 83.992 386.02 82.984C387.076 81.928 388.852 81.4 391.348 81.4H397.468C398.86 81.4 399.844 81.76 400.42 82.48C401.044 83.152 401.5 84.184 401.788 85.576H393.652C392.164 85.576 391.228 85.888 390.844 86.512C390.46 87.136 390.268 88.192 390.268 89.68V95.296C390.268 96.784 390.532 97.744 391.06 98.176C391.636 98.608 392.668 98.824 394.156 98.824H398.908V101.056C398.908 101.824 398.788 102.352 398.548 102.64C398.356 102.88 397.876 103 397.108 103H391.348Z" fill="#2185D0"/>
</svg>
